<?xml version="1.0" encoding="UTF-8"?>
<svg width="8px" height="15px" viewBox="0 0 8 15" version="1.1" xmlns="http://www.w3.org/2000/svg" xmlns:xlink="http://www.w3.org/1999/xlink">
    <!-- Generator: sketchtool 58 (101010) - https://sketch.com -->
    <title>37B9A887-D74E-4935-841A-2B03B5E58AA7</title>
    <desc>Created with sketchtool.</desc>
    <defs>
        <polygon id="path-1" points="0 0 7.1485011 0 7.1485011 14.035175 0 14.035175"></polygon>
    </defs>
    <g id="Fix-On-VIsa-Web" stroke="none" stroke-width="1" fill="none" fill-rule="evenodd">
        <g id="Fix-On-VISA-Footer-Mobile" transform="translate(-294.000000, -441.000000)">
            <g id="Group-10" transform="translate(16.000000, 321.000000)">
                <g id="Group-17" transform="translate(0.000000, 120.000000)">
                    <g id="FB-Icon" transform="translate(278.000000, 0.000000)">
                        <mask id="mask-2" fill="white">
                            <use xlink:href="#path-1"></use>
                        </mask>
                        <g id="Clip-2"></g>
                        <path d="M4.7272855,10.5021595 C4.7272855,11.5926545 4.7274255,12.6831495 4.7271455,13.7736445 C4.7270755,13.9965945 4.7241705,13.9994995 4.5022355,13.9997095 C3.9074455,14.0001995 3.3121305,13.9861295 2.7180055,14.0062895 C2.4595305,14.0150745 1.8804555,14.0441245 1.6172555,14.0324695 C1.5422855,14.0291095 1.5381905,14.0148295 1.5427405,13.9067145 C1.5557955,13.8387445 1.5413755,13.4194445 1.5414455,13.3503195 C1.5425655,11.3267595 1.5424605,9.3032345 1.5422855,7.2796745 C1.5422855,7.0353745 1.5415505,7.0349195 1.3013455,7.0345345 C0.9339505,7.0340095 0.5664855,7.0298795 0.1991955,7.0362495 C0.0606655,7.0386645 -0.0008995,7.0003745 0.0003955,6.8494895 C0.0060655,6.1730795 0.0055755,5.4965645 -8.3831261e-06,4.8201545 C-0.0010745,4.6879945 0.0444605,4.6496695 0.1720705,4.6518045 C0.5626705,4.6583495 0.9535855,4.6488645 1.3441155,4.6571245 C1.4980105,4.6603795 1.5468005,4.6057095 1.5452955,4.4540545 C1.5390305,3.8184895 1.5419005,3.1828195 1.5427755,2.5471845 C1.5446305,1.1590845 2.5070255,0.3002895 3.7104655,0.1081045 C4.1404755,0.0394345 4.5787805,0.0353395 5.0141105,0.0371245 C5.6434105,0.0396795 6.2718705,0.0200095 6.9005755,0.0006895 C7.1123605,-0.0057855 7.1419705,0.0293195 7.1421805,0.2439395 C7.1429155,0.9145395 7.1426705,1.5852095 7.1421455,2.2558095 C7.1419705,2.4805445 7.1385405,2.4839045 6.9195455,2.4841495 C6.4238755,2.4846745 5.9282055,2.4833095 5.4325005,2.4846395 C5.0259055,2.4857245 4.7364205,2.7642545 4.7295605,3.1733695 C4.7223855,3.6048145 4.7319755,4.0365045 4.7254655,4.4679145 C4.7235055,4.5984995 4.7805205,4.6221595 4.8937105,4.6215645 C5.5701905,4.6180995 6.2466355,4.6194645 6.9231155,4.6198845 C7.1328705,4.6199895 7.1684655,4.6595745 7.1399405,4.8686295 C7.0490805,5.5345745 6.9509405,6.1996095 6.8688655,6.8666395 C6.8511905,7.0104895 6.7908855,7.0366695 6.6673005,7.0358995 C6.0841655,7.0322945 5.5008905,7.0398895 4.9178955,7.0304745 C4.7585755,7.0278845 4.7234355,7.0810845 4.7242405,7.2306395 C4.7299455,8.3211345 4.7272855,9.4116645 4.7272855,10.5021595" id="Fill-1" fill="#FEFEFE" mask="url(#mask-2)"></path>
                    </g>
                </g>
            </g>
        </g>
    </g>
</svg>