<?xml version="1.0" encoding="UTF-8"?>
<svg width="13px" height="13px" viewBox="0 0 13 13" version="1.1" xmlns="http://www.w3.org/2000/svg" xmlns:xlink="http://www.w3.org/1999/xlink">
    <!-- Generator: sketchtool 58 (101010) - https://sketch.com -->
    <title>E19A6F54-5DF8-42FE-AAF0-461E72373754</title>
    <desc>Created with sketchtool.</desc>
    <g id="Fix-On-VIsa-Web" stroke="none" stroke-width="1" fill="none" fill-rule="evenodd">
        <g id="Fix-On-VISA-Footer-Mobile" transform="translate(-342.000000, -442.000000)" fill="#FEFEFE">
            <g id="Group-10" transform="translate(16.000000, 321.000000)">
                <g id="Group-17" transform="translate(0.000000, 120.000000)">
                    <g id="Insta-Icon" transform="translate(326.000000, 1.000000)">
                        <g id="Group-3" transform="translate(0.000000, 0.021385)">
                            <path d="M1.141812,6.340502 C1.141812,7.209272 1.125047,8.078532 1.150352,8.946567 C1.160012,9.277667 1.209607,9.630082 1.338337,9.931187 C1.791762,10.991792 2.622732,11.544337 3.777662,11.554417 C5.485942,11.569327 7.194467,11.565092 8.902747,11.551687 C9.193772,11.549377 9.494527,11.493237 9.772917,11.405282 C10.811752,11.077052 11.532717,10.102477 11.538807,9.016042 C11.548607,7.266917 11.548502,5.517617 11.538562,3.768492 C11.534327,3.027227 11.268957,2.379937 10.721802,1.868517 C10.211887,1.391852 9.601557,1.156862 8.900402,1.157597 C7.221172,1.159347 5.541942,1.159697 3.862712,1.15657606 C3.527832,1.155987 3.204747,1.200017 2.885792,1.307642 C1.848637,1.657537 1.166697,2.628542 1.145732,3.646832 C1.127217,4.544372 1.141847,5.442577 1.141812,6.340502 M0.002072,6.320762 C0.001897,5.469422 -0.003108,4.618047 0.003122,3.766742 C0.010962,2.702812 0.399742,1.800617 1.165437,1.058022 C1.676437,0.562422 2.287572,0.256207 2.971682,0.096082 C3.213357,0.039522 3.468892,0.022617 3.718197,0.021742 C5.467497,0.015687 7.216937,0.006832 8.966132,0.021987 C10.546032,0.035707 11.872392,0.995022 12.435892,2.439857 C12.608757,2.883132 12.678197,3.350872 12.679632,3.824282 C12.684847,5.538617 12.707667,7.253477 12.674067,8.967147 C12.643232,10.538752 11.872672,11.675902 10.465847,12.365787 C9.982252,12.602982 9.451862,12.696992 8.910517,12.697482 C7.201992,12.698987 5.493257,12.716277 3.785047,12.692687 C2.198462,12.670812 1.044267,11.919012 0.338422,10.500042 C0.102837,10.026422 0.009387,9.507687 0.004452,8.979712 C-0.003738,8.093477 0.002212,7.207102 0.002072,6.320762" id="Fill-1"></path>
                        </g>
                        <path d="M4.018749,6.354761 C4.049129,7.691481 5.037634,8.696996 6.341629,8.69246138 C7.674709,8.687721 8.653939,7.666596 8.65275008,6.403936 C8.651489,5.035926 7.634144,4.066356 6.336554,4.06712554 C5.006029,4.067896 4.056164,5.104351 4.018749,6.354761 M2.89367162,6.359136 C2.889369,4.479216 4.431469,2.939076 6.324059,2.9331082 C8.255114,2.927071 9.793784,4.466616 9.78743371,6.417796 C9.781394,8.266776 8.264179,9.834566 6.319334,9.82769366 C4.450544,9.821056 2.884854,8.305556 2.89367162,6.359136" id="Fill-4"></path>
                        <path d="M10.2481682,2.979088 C10.247923,3.268503 10.035788,3.479588 9.744868,3.47990335 C9.453983,3.480218 9.256233,3.269973 9.237928,2.979298 C9.220708,2.705738 9.485203,2.452338 9.754108,2.468858 C10.043453,2.486638 10.248413,2.684388 10.2481682,2.979088" id="Fill-6"></path>
                    </g>
                </g>
            </g>
        </g>
    </g>
</svg>