<?xml version="1.0" encoding="utf-8"?>
<!-- Generator: Adobe Illustrator 24.0.0, SVG Export Plug-In . SVG Version: 6.00 Build 0)  -->
<svg version="1.1" id="Layer_1" xmlns="http://www.w3.org/2000/svg" xmlns:xlink="http://www.w3.org/1999/xlink" x="0px" y="0px"
	 viewBox="0 0 212 108" style="enable-background:new 0 0 212 108;" xml:space="preserve">
<style type="text/css">
	.st0{fill:#F3F4F4;}
	.st1{fill:#8BD0FA;}
	.st2{fill:#FDE379;}
	.st3{fill:#83CDAD;}
	.st4{fill:#E2E2E2;}
	.st5{fill:#E24746;}
</style>
<g>
	<rect id="Rectangle_6_" y="0" class="st0" width="212" height="108"/>
	<g>
		<path class="st1" d="M211.9,82.6V70.1c0,0-0.1,0-0.1,0v12.5C211.8,82.7,211.9,82.7,211.9,82.6z"/>
		<path class="st1" d="M211.8,3c0,0,0.1,0,0.1,0V0h-0.1V3z"/>
		<path class="st1" d="M211.8,82.7V70.2c-4.3,1.3-12,3.6-20.4,6.6c-17.6,6.4-29.6,12.7-35.6,18.7c-3.6,3.6-5.7,7.9-7.2,12.5h12.9
			c0.8-1.6,1.6-2.9,2.8-4.1C172.5,95.7,197.2,87.1,211.8,82.7z"/>
		<path class="st1" d="M211.8,3V0h-58.9C166.8,6.1,186.2,9.4,211.8,3z"/>
		<g>
			<path class="st2" d="M211.8,11.8L135,12l-7.4-12h-7.1l8.7,14l-16.6,10.4c0,0,0,0,0,0c2.4,0.4,4.7,1.4,6.8,2.8c0,0,0,0,0,0
				l14.8-9.3l77.6-0.1h0.1v-6H211.8z"/>
			<path class="st2" d="M141.3,77.1L124.6,50c-0.9,2.3-1.8,4.6-2.9,6.8l15.1,24.5l-8.4,26.8h6.3l7.8-24.9l69.3-26.7l0.1-0.1v-6.4
				l-0.1,0.1L141.3,77.1z"/>
			<path class="st2" d="M92.5,44.1c-0.5-2.4-0.4-4.9,0.2-7.2L61.4,56.4L26.9,37L86.4,0H75L20.9,33.6L0,21.8v6.9l15.1,8.5L0,46.6v7.1
				l21.1-13.1l34.5,19.5L0,94.9v7.1l32-20L47.7,108h7L37.1,78.7l23.9-15L89.1,108h7.1L66.1,60.6L92.5,44.1z"/>
			<polygon class="st2" points="0,0 0,6 9,0 			"/>
			<path class="st2" d="M114.8,34c-1.1-0.8-2.3-1.4-3.7-1.6c-0.6-0.1-1.2-0.2-1.9-0.2c-0.8,0-1.6,0.2-2.3,0.4
				c-3,0.9-5.4,3.3-6.2,6.3l7.3-4.6l8.1,13.2c1.5-1.7,2.5-4,2.4-6.5c0-0.4-0.1-0.8-0.1-1.2L114.8,34z"/>
		</g>
		<path class="st3" d="M201.6,29.4c0-0.9-0.8-1.6-1.7-1.6l-62.9,0.1c-0.3,0-0.6,0.1-0.8,0.2l-8.3,4.7c-0.4,0.2-0.7,0.6-0.8,1.1
			c-0.1,0.4-0.1,0.9,0.2,1.3l17,28.3c0.4,0.7,1.3,1,2,0.7l54.9-19.7c0.7-0.3,1.2-0.9,1.1-1.7L201.6,29.4z"/>
		<path class="st3" d="M13.9,107.8l-0.3,0.2h11.6c-0.1-0.1-0.2-0.1-0.3-0.2C20.8,104.3,13.9,107.8,13.9,107.8z"/>
		<path class="st3" d="M49.3,0H21.9L11.2,6.7c-0.7,0.4-0.9,1.4-0.5,2.1l9.6,15.5c0,0,0,0,0,0c0.4,0.7,1.4,0.9,2.1,0.5L51.6,6.6
			c0.7-0.4,0.9-1.4,0.5-2.1L49.3,0z"/>
		<path class="st3" d="M21.7,50.8c-0.2-0.4-0.6-0.7-1-0.8c-0.4-0.1-0.9,0-1.3,0.2L0,62.3v25.1l30.6-19.1c0.8-0.5,1-1.5,0.5-2.3
			L21.7,50.8z"/>
		<g>
			<path class="st4" d="M211.8,102.3l-21.3-3.8c-0.4-0.1-0.9,0-1.3,0.3c-0.4,0.3-0.6,0.6-0.7,1.1l-1.5,8.2h24.7h0.2v-5.6
				L211.8,102.3z"/>
			<path class="st4" d="M61.2,47.4C61.2,47.4,61.2,47.4,61.2,47.4c0.4,0.7,1.4,0.9,2.1,0.5l21.1-13.2c0.7-0.4,0.9-1.4,0.5-2.1
				l-9.6-15.5c0,0,0,0,0,0c-0.4-0.7-1.4-0.9-2.1-0.5L52,29.8c-0.7,0.4-0.9,1.4-0.5,2.1L61.2,47.4z"/>
			<path class="st4" d="M63.7,80l-4.4-7.1c0,0,0,0,0,0c-0.4-0.7-1.4-0.9-2.1-0.5l-9.3,5.8c-0.7,0.4-0.9,1.4-0.5,2.1l4.4,7.1
				c0,0,0,0,0,0c0.4,0.7,1.4,0.9,2.1,0.5l9.3-5.8C63.9,81.7,64.2,80.7,63.7,80z"/>
			<path class="st4" d="M68,87.4c-0.4-0.7-1.4-0.9-2.1-0.5l-9.3,5.8c-0.7,0.4-0.9,1.4-0.5,2.1l8.2,13.2h16.4L68,87.4
				C68,87.4,68,87.4,68,87.4z"/>
			<path class="st4" d="M91.2,28.6C91.2,28.6,91.2,28.6,91.2,28.6c0.4,0.7,1.4,0.9,2.1,0.5l25.5-16c0.7-0.4,0.9-1.4,0.5-2.1l-6.8-11
				H99.6L82,11c-0.7,0.4-0.9,1.4-0.5,2.1L91.2,28.6z"/>
			<path class="st4" d="M116.7,66.2c-0.2,0.4-0.4,0.7-0.6,1.1c-2,3.8-4.3,7.4-6.6,11.5c-5.1-8.8-10.4-17.3-14.1-26.4l-13.1,8
				c-1,0.6-1.4,2-0.7,3l26.9,44.6h9.5l8.7-23.9c0.2-0.6,0.2-1.3-0.2-1.9L116.7,66.2z"/>
			<path class="st4" d="M104.7,47.5c-0.6-0.1-1.2,0-1.6,0.3l-0.1,0.1c1.1,1.1,2.5,2,4.1,2.4l-1-1.7C105.8,48,105.3,47.7,104.7,47.5z
				"/>
			<path class="st4" d="M61.3,1.2L63.2,0h-4.6L59,0.7C59.4,1.5,60.5,1.7,61.3,1.2z"/>
		</g>
		<path class="st5" d="M119.5,27.3C119.5,27.3,119.4,27.2,119.5,27.3C119.4,27.2,119.4,27.2,119.5,27.3c-2.1-1.5-4.4-2.4-6.8-2.9
			c0,0,0,0,0,0c-4.5-0.8-9.2,0.1-13.1,2.8c-3.4,2.4-5.8,5.8-6.8,9.6c-0.6,2.3-0.7,4.8-0.2,7.2c0.1,0.4,0.2,0.8,0.3,1.2
			c0.7,2.5,1.6,4.9,2.6,7.2c3.7,9.1,9,17.6,14.1,26.4c2.4-4.1,4.6-7.8,6.6-11.5c0.2-0.4,0.4-0.7,0.6-1.1c1.7-3.1,3.4-6.3,5-9.5
			c1.1-2.2,2-4.5,2.9-6.8c0.6-1.5,1.1-3.1,1.5-4.6C128,38.6,125.3,31.4,119.5,27.3z M118.5,41.2c0,2.5-0.9,4.8-2.4,6.5
			c-1.6,1.8-4,2.9-6.6,2.9c-0.8,0-1.7-0.1-2.5-0.3c-1.6-0.4-3-1.3-4.1-2.4c-1.6-1.6-2.6-3.8-2.6-6.3c0-0.9,0.1-1.8,0.3-2.6
			c0.8-3,3.2-5.4,6.2-6.3c0.7-0.2,1.5-0.3,2.3-0.4c0.6,0,1.3,0,1.9,0.2c1.4,0.3,2.6,0.8,3.7,1.6c1.9,1.4,3.2,3.5,3.6,5.9
			C118.5,40.3,118.5,40.7,118.5,41.2z"/>
	</g>
</g>
</svg>
