<?xml version="1.0" encoding="UTF-8"?>
<svg width="31px" height="16px" viewBox="0 0 31 16" version="1.1" xmlns="http://www.w3.org/2000/svg" xmlns:xlink="http://www.w3.org/1999/xlink">
    <!-- Generator: Sketch 58 (84663) - https://sketch.com -->
    <title>Verified by Visa White</title>
    <desc>Created with Sketch.</desc>
    <g id="Fix-On-VIsa-Web" stroke="none" stroke-width="1" fill="none" fill-rule="evenodd">
        <g id="Fix-on-VISA-Footer" transform="translate(-241.000000, -522.000000)" fill="#FFFFFF">
            <g id="Group-14" transform="translate(0.000000, 317.000000)">
                <g id="Group-13" transform="translate(172.000000, 41.000000)">
                    <g id="Group-11" transform="translate(0.000000, 98.000000)">
                        <g id="Verified-by-Visa-White" transform="translate(69.000000, 66.000000)">
                            <path d="M1.6384036,5.2822 L0,0.3773 L0.700362083,0.3773 L1.4831197,2.79383665 C1.69861573,3.45542403 1.88508984,4.05251396 2.01919109,4.62729039 L2.034536,4.62729039 C2.17614291,4.05902886 2.38463365,3.44043977 2.60780213,2.80035155 L3.45744358,0.3773 L4.1503,0.3773 L2.35411061,5.2822 L1.6384036,5.2822 Z" id="Fill-1"></path>
                            <path d="M6.18983962,3.04799544 C6.19790682,2.6296464 6.02738826,1.97938285 5.3275978,1.97938285 C4.69883037,1.97938285 4.42359633,2.59219229 4.37392766,3.04799544 L6.18983962,3.04799544 Z M4.36665136,3.51884711 C4.38104578,4.40821502 4.91759398,4.77372701 5.54003419,4.77372701 C5.98547043,4.77372701 6.25342817,4.69129453 6.48737711,4.58679087 L6.59351621,5.05780975 C6.37411988,5.16231341 6.00002304,5.2822 5.45556581,5.2822 C4.40192561,5.2822 3.773,4.54933676 3.773,3.458653 C3.773,2.36780204 4.38104578,1.5092 5.37679193,1.5092 C6.49386251,1.5092 6.7914,2.54804994 6.7914,3.21202437 C6.7914,3.34629067 6.7768474,3.45096153 6.76972927,3.51884711 L4.36665136,3.51884711 Z" id="Fill-3"></path>
                            <path d="M7.57693478,2.74343859 C7.57693478,2.30979181 7.5689404,1.93585248 7.546,1.59244927 L8.14418821,1.59244927 L8.1671286,2.31678611 L8.19806338,2.31678611 C8.36872602,1.82138474 8.78043662,1.5092 9.23907075,1.5092 C9.31588632,1.5092 9.37167319,1.51704727 9.4325,1.53171824 L9.4325,2.16478796 C9.36263607,2.14926402 9.29294592,2.14141676 9.19927264,2.14141676 C8.71856707,2.14141676 8.37741557,2.49966155 8.28374228,3.00273958 C8.26792731,3.09468908 8.25193855,3.20148015 8.25193855,3.31577729 L8.25193855,5.2822 L7.57693478,5.2822 L7.57693478,2.74343859 Z" id="Fill-5"></path>
                            <path d="M9.5080765,5.2822 L10.1182638,5.2822 L10.1182638,1.76503733 L9.5080765,1.76503733 L9.5080765,5.2822 Z M10.1868711,0.776770566 C10.1938403,0.99504805 10.0411386,1.16957245 9.79938672,1.16957245 C9.58520169,1.16957245 9.4325,0.99504805 9.4325,0.776770566 C9.4325,0.551824396 9.59155135,0.3773 9.81363474,0.3773 C10.0411386,0.3773 10.1868711,0.551824396 10.1868711,0.776770566 L10.1868711,0.776770566 Z" id="Fill-7"></path>
                            <path d="M11.0503675,5.2822 L11.0503675,2.22683713 L10.5644,2.22683713 L10.5644,1.73575568 L11.0503675,1.73575568 L11.0503675,1.56736147 C11.0503675,1.06972133 11.1575968,0.615368512 11.4500402,0.329245929 C11.6857529,0.0951009157 11.9992906,0 12.2926929,0 C12.5145025,0 12.7062687,0.0508297998 12.8282,0.102643402 L12.742864,0.600283539 C12.649378,0.55617639 12.5210545,0.520267596 12.3422325,0.520267596 C11.8076842,0.520267596 11.6720096,1.00380656 11.6720096,1.54571781 L11.6720096,1.73575568 L12.5063524,1.73575568 L12.5063524,2.22683713 L11.6720096,2.22683713 L11.6720096,5.2822 L11.0503675,5.2822 Z" id="Fill-9"></path>
                            <path d="M13.2826189,5.2822 L13.8912076,5.2822 L13.8912076,1.76503733 L13.2826189,1.76503733 L13.2826189,5.2822 Z M13.9598093,0.776770566 C13.967707,0.99504805 13.8140887,1.16957245 13.5725115,1.16957245 C13.3581892,1.16957245 13.2055,0.99504805 13.2055,0.776770566 C13.2055,0.551824396 13.3653126,0.3773 13.5866035,0.3773 C13.8140887,0.3773 13.9598093,0.551824396 13.9598093,0.776770566 L13.9598093,0.776770566 Z" id="Fill-10"></path>
                            <path d="M16.7548731,3.04799544 C16.7613602,2.6296464 16.5923791,1.97938285 15.8924053,1.97938285 C15.263473,1.97938285 14.9881669,2.59219229 14.9375358,3.04799544 L16.7548731,3.04799544 Z M14.931207,3.51884711 C14.9456051,4.40821502 15.482294,4.77372701 16.1048973,4.77372701 C16.5506085,4.77372701 16.8184783,4.69129453 17.0524885,4.58679087 L17.1588137,5.05780975 C16.9390434,5.16231341 16.5634245,5.2822 16.0202486,5.2822 C14.9664904,5.2822 14.3374,4.54933676 14.3374,3.458653 C14.3374,2.36780204 14.9456051,1.5092 15.9414541,1.5092 C17.0589756,1.5092 17.3558,2.54804994 17.3558,3.21202437 C17.3558,3.34629067 17.3420347,3.45096153 17.3339654,3.51884711 L14.931207,3.51884711 Z" id="Fill-11"></path>
                            <path d="M20.44548,3.09929518 C20.44548,3.01844686 20.4379947,2.90824386 20.4158717,2.82739554 C20.3193951,2.41725017 19.9617666,2.08040948 19.472065,2.08040948 C18.7953985,2.08040948 18.3945218,2.66651885 18.3945218,3.45122319 C18.3945218,4.16901858 18.7506533,4.76185164 19.4577598,4.76185164 C19.8948983,4.76185164 20.2966067,4.4766686 20.4158717,3.99223461 C20.4379947,3.90482658 20.44548,3.81709057 20.44548,3.71459523 L20.44548,3.09929518 Z M21.1001897,0 L21.1001897,4.28578127 C21.1001897,4.60097495 21.1070096,4.95946266 21.1288,5.20217164 L20.5427882,5.20217164 L20.5123482,4.58687159 L20.4972114,4.58687159 C20.2966067,4.98192964 19.8586365,5.2822 19.2707949,5.2822 C18.4013417,5.2822 17.7331585,4.55686096 17.7331585,3.47942991 C17.7255069,2.29966751 18.4690416,1.57514843 19.3461465,1.57514843 C19.8948983,1.57514843 20.2671647,1.83179677 20.4301768,2.11714381 L20.44548,2.11714381 L20.44548,0 L21.1001897,0 Z" id="Fill-12"></path>
                            <path d="M24.0614349,3.78052023 C24.0614349,3.86054859 24.0765646,3.94139692 24.09153,4.01486558 C24.2160217,4.46174528 24.5899904,4.7693953 25.060658,4.7693953 C25.7370578,4.7693953 26.1411215,4.22002026 26.1411215,3.4069452 C26.1411215,2.69669347 25.7729088,2.08795313 25.0833527,2.08795313 C24.6426157,2.08795313 24.2311515,2.3880595 24.0982726,2.87921718 C24.0831428,2.95252185 24.0614349,3.04009387 24.0614349,3.14258921 L24.0614349,3.78052023 Z M23.3926,5.20217164 C23.4075653,4.95946266 23.4217084,4.60097495 23.4217084,4.28578127 L23.4217084,0 L24.0614349,0 L24.0614349,2.22718281 L24.0765646,2.22718281 C24.3040047,1.83196076 24.7153044,1.57514843 25.2889203,1.57514843 C26.1710522,1.57514843 26.7948266,2.30803113 26.7882485,3.38447822 C26.7882485,4.65181264 25.9871925,5.2822 25.193537,5.2822 C24.6786311,5.2822 24.267167,5.08458898 24.0028892,4.61606227 L23.9813457,4.61606227 L23.9510862,5.20217164 L23.3926,5.20217164 Z" id="Fill-13"></path>
                            <path d="M27.504951,1.5092 L28.2952546,3.65239526 C28.3779258,3.89199987 28.4679456,4.17670848 28.5264,4.39418026 L28.5415982,4.39418026 C28.6095723,4.17670848 28.6835589,3.89870678 28.7735787,3.63696936 L29.4893946,1.5092 L30.184,1.5092 L29.1981247,4.09404574 C28.7284853,5.33784346 28.4074871,5.97466521 27.9600603,6.36433707 C27.6390621,6.64820733 27.3180639,6.76071586 27.1542246,6.7914 L26.9895502,6.23640263 C27.1542246,6.18442403 27.3698378,6.07946078 27.5642405,5.91413528 C27.743445,5.77178097 27.9669079,5.5177565 28.1172192,5.18023091 C28.1469474,5.1128264 28.1689931,5.06084779 28.1689931,5.02328906 C28.1689931,4.98573032 28.1537949,4.93291335 28.1238997,4.85108897 L26.7883,1.5092 L27.504951,1.5092 Z" id="Fill-14"></path>
                            <path d="M10.5087003,7.9233 L8.58697868,12.80297 L7.80897007,8.65441674 C7.71964017,8.19172151 7.35893441,7.9233 6.95791733,7.9233 L3.81556876,7.9233 L3.773,8.13068719 C4.41733625,8.27315458 5.15035742,8.49883587 5.59458825,8.73989717 C5.8659641,8.88964983 5.94384559,9.01900374 6.03156303,9.37112484 L7.50566764,15.092 L9.45850957,15.092 L12.4509,7.9233 L10.5087003,7.9233 Z" id="Fill-15"></path>
                            <polygon id="Fill-16" points="13.6112234 7.9233 12.0736 15.092 13.9341129 15.092 15.4693 7.9233"></polygon>
                            <path d="M17.7964189,9.70327114 C17.8021121,9.44193353 18.0487077,9.16395336 18.587119,9.0901329 C18.8550234,9.05569433 19.5894425,9.02965944 20.424712,9.4168873 L20.7515,7.87110663 C20.3040168,7.70599926 19.7251026,7.546 19.0089017,7.546 C17.1662662,7.546 15.8719644,8.53961022 15.8594395,9.96065409 C15.8495171,11.0096297 16.7857997,11.5959091 17.4904516,11.946062 C18.2165749,12.3021468 18.4613813,12.5308584 18.4565014,12.8533286 C18.4530855,13.3428835 17.8774246,13.5572594 17.3432425,13.5654983 C16.4053332,13.5806579 15.8618794,13.3100927 15.4277344,13.1064273 L15.092,14.7049369 C15.5254943,14.9069545 16.3300207,15.0835963 17.1644769,15.092 C19.1190239,15.092 20.3999874,14.1119016 20.4066565,12.5954513 C20.4149523,10.6683748 17.7783634,10.562917 17.7964189,9.70327114" id="Fill-17"></path>
                            <path d="M24.0213415,7.9233 C23.6573217,7.9233 23.3503349,8.12987771 23.2142821,8.44929608 L20.3742,15.092 L22.3637453,15.092 L22.7586787,14.0212281 L25.182006,14.0212281 L25.4096424,15.092 L27.1656,15.092 L25.6382706,7.9233 L24.0213415,7.9233 Z M23.3025594,12.5534902 L24.308656,9.86101839 L24.8751846,12.5534902 L23.3025594,12.5534902 Z" id="Fill-18"></path>
                        </g>
                    </g>
                </g>
            </g>
        </g>
    </g>
</svg>